<?xml version="1.0" standalone="no"?>
<!DOCTYPE svg PUBLIC "-//W3C//DTD SVG 20010904//EN"
 "http://www.w3.org/TR/2001/REC-SVG-20010904/DTD/svg10.dtd">
<svg version="1.0" xmlns="http://www.w3.org/2000/svg"
 width="768.000000pt" height="768.000000pt" viewBox="0 0 768.000000 768.000000"
 preserveAspectRatio="xMidYMid meet">
<metadata>
Created by potrace 1.14, written by Peter Selinger 2001-2017
</metadata>
<g transform="translate(0.000000,768.000000) scale(0.100000,-0.100000)"
fill="#000000" stroke="none">
<path d="M3560 7670 c-921 -76 -1737 -443 -2383 -1070 -172 -166 -293 -304
-420 -475 -645 -872 -890 -1970 -676 -3040 51 -256 144 -563 169 -557 10 2 10
-1 -1 -14 -13 -15 -12 -16 11 -10 24 7 25 7 5 -10 -20 -16 -20 -16 3 -9 16 5
22 2 22 -10 0 -10 5 -13 13 -9 6 4 9 4 5 -1 -11 -11 12 -36 25 -28 6 3 7 1 3
-5 -4 -7 -1 -12 8 -12 9 0 16 -9 16 -20 0 -12 5 -17 14 -14 10 4 12 -2 8 -22
-3 -19 -1 -25 7 -20 7 5 11 -1 11 -15 0 -18 2 -19 15 -9 14 11 14 10 5 -14
-14 -39 -14 -39 32 -31 37 7 41 6 30 -7 -6 -8 -9 -18 -5 -21 3 -4 1 -7 -5 -7
-6 0 -14 5 -17 10 -3 6 -11 10 -18 10 -24 0 14 -24 41 -26 38 -3 39 -3 22 -14
-12 -8 -10 -10 10 -11 14 0 19 -3 13 -6 -15 -6 -17 -29 -4 -38 5 -3 13 0 17 6
5 8 3 9 -7 4 -12 -8 -12 -6 0 8 18 23 34 21 26 -3 -4 -11 -2 -20 4 -20 6 0 10
-3 10 -7 -3 -20 2 -34 10 -29 5 3 11 -1 14 -9 4 -10 1 -12 -10 -8 -13 5 -14 3
-4 -15 10 -19 15 -20 36 -10 18 8 22 15 15 22 -5 5 -10 17 -10 26 0 9 6 5 14
-10 8 -16 9 -29 3 -37 -7 -9 -5 -13 6 -13 8 0 18 -8 21 -17 6 -15 8 -15 16 -3
8 13 10 13 10 -2 0 -9 4 -18 9 -20 5 -2 11 -21 13 -42 2 -22 9 -41 16 -44 7
-2 12 1 12 8 0 6 -4 9 -8 6 -4 -2 -9 4 -9 15 -1 10 2 19 8 19 5 0 8 -6 6 -12
-1 -7 3 -12 10 -11 9 2 9 -5 1 -27 -9 -27 -7 -34 15 -56 18 -17 27 -21 30 -12
4 9 6 7 6 -4 1 -14 6 -15 31 -8 19 5 28 5 25 -1 -4 -5 -13 -9 -21 -9 -10 0
-12 -5 -7 -12 4 -7 8 -16 8 -20 0 -3 3 -10 7 -14 4 -3 6 2 3 14 -4 20 16 25
32 7 4 -4 2 -5 -4 -1 -9 5 -13 -1 -13 -18 0 -14 -6 -26 -12 -26 -7 -1 1 -7 17
-15 17 -7 26 -14 20 -14 -5 -1 1 -8 13 -17 12 -8 19 -20 16 -26 -4 -7 -2 -8 5
-4 6 4 28 2 48 -5 29 -9 33 -13 19 -21 -9 -5 -16 -14 -16 -21 0 -7 4 -6 10 3
9 13 10 13 11 0 1 -8 1 -22 0 -32 -1 -9 2 -19 8 -22 5 -4 7 3 3 16 -5 21 -4
22 12 9 9 -8 15 -19 13 -25 -2 -6 5 -19 14 -30 10 -10 15 -24 12 -30 -3 -6 -3
-8 1 -4 4 3 21 2 37 -4 23 -8 28 -15 24 -29 -5 -15 -3 -18 12 -12 10 4 21 11
25 17 4 6 8 -1 8 -15 0 -24 -20 -53 -31 -46 -2 1 2 -4 10 -10 8 -7 22 -13 30
-12 11 0 10 3 -4 9 l-20 8 20 7 c11 5 23 10 27 12 3 2 5 -8 3 -22 -2 -24 0
-26 44 -29 8 -1 16 -8 18 -16 4 -13 3 -13 -6 0 -8 11 -11 12 -11 2 0 -7 -4
-10 -10 -7 -5 3 -15 3 -20 0 -7 -4 2 -19 20 -38 25 -25 32 -29 43 -17 8 8 8
11 0 6 -13 -7 -48 23 -37 33 4 3 9 0 11 -6 3 -7 11 -13 18 -13 8 0 19 -9 25
-20 6 -11 17 -20 25 -20 8 0 15 -5 15 -10 0 -7 -6 -7 -18 -1 -28 15 -42 -1
-21 -23 13 -13 19 -15 19 -6 0 7 3 10 7 7 3 -4 11 -2 18 3 8 7 11 3 11 -13 -1
-12 -5 -26 -11 -30 -6 -5 0 -7 13 -4 12 3 20 1 16 -4 -3 -5 -1 -9 5 -9 5 0 11
6 14 13 2 6 2 2 0 -10 -2 -15 2 -23 11 -23 20 0 29 -17 15 -26 -8 -4 -9 -3 -5
4 4 7 1 12 -8 12 -9 0 -16 -4 -16 -10 0 -11 2 -11 38 -15 12 -1 26 -6 30 -10
4 -5 -2 -5 -13 -1 -12 4 -8 -3 13 -20 18 -14 30 -30 27 -35 -4 -5 1 -9 9 -9 8
0 18 -9 21 -20 4 -11 11 -18 16 -15 5 4 9 2 9 -4 0 -5 -5 -11 -12 -13 -17 -6
-3 -35 24 -48 22 -11 22 -10 4 4 -19 16 -19 16 2 16 13 0 22 -6 22 -16 0 -10
6 -13 18 -10 13 4 19 1 19 -9 0 -8 -4 -15 -8 -15 -4 0 -9 -7 -13 -15 -3 -8 -2
-14 2 -14 4 1 14 1 22 0 13 -1 13 -3 1 -10 -12 -8 -9 -11 12 -16 15 -4 24 -11
21 -16 -3 -5 1 -6 9 -3 8 3 17 -2 20 -10 4 -9 13 -16 22 -16 8 0 15 -5 15 -11
0 -5 5 -7 10 -4 5 3 10 1 10 -4 0 -6 -5 -11 -11 -11 -6 0 -4 -7 5 -15 8 -8 22
-15 30 -15 9 0 16 -5 16 -11 0 -6 -7 -8 -17 -4 -14 5 -13 1 4 -14 12 -12 27
-21 33 -21 5 0 11 -6 11 -12 1 -7 2 -19 3 -27 0 -8 7 -16 15 -19 8 -3 11 0 7
7 -9 13 4 14 24 1 8 -5 10 -10 3 -10 -13 0 -12 -18 1 -39 7 -10 5 -12 -5 -7
-8 4 -2 -2 14 -14 15 -12 24 -27 21 -32 -5 -7 -2 -8 5 -4 9 6 9 12 -3 25 -18
20 -20 31 -6 31 6 0 10 -6 10 -14 0 -7 7 -19 15 -26 11 -9 12 -17 4 -34 -9
-19 -9 -19 8 2 17 21 21 22 32 9 8 -11 9 -17 1 -22 -15 -9 -1 -28 16 -21 8 3
13 2 13 -2 -3 -19 2 -75 6 -71 2 3 5 19 7 36 1 18 6 30 10 27 4 -3 4 -12 1
-21 -4 -10 -2 -14 4 -10 6 4 16 -6 22 -23 5 -17 17 -30 25 -30 8 0 22 -7 30
-16 9 -8 20 -13 26 -9 5 3 7 0 4 -8 -10 -28 395 -195 662 -272 1123 -322 2333
-119 3281 552 527 372 987 920 1255 1491 322 687 435 1449 327 2197 -104 718
-415 1401 -890 1950 -127 146 -365 376 -513 494 -571 455 -1227 728 -1961 816
-154 19 -566 27 -715 15z m210 -3020 l0 -1410 -380 0 -380 0 0 1115 0 1115
-470 0 -470 0 0 -1115 0 -1115 -375 0 -375 0 0 1410 0 1410 1225 0 1225 0 0
-1410z m1726 -11 c521 -51 831 -246 921 -580 26 -97 23 -285 -5 -363 -62 -170
-204 -309 -396 -390 l-69 -30 79 -21 c235 -65 404 -183 487 -342 55 -106 68
-162 68 -293 -1 -411 -248 -663 -746 -762 -107 -22 -134 -22 -937 -26 l-828
-3 0 1411 0 1410 658 0 c391 0 703 -4 768 -11z m-5031 -2339 c4 -6 -1 -7 -11
-3 -12 4 -15 3 -10 -5 4 -7 1 -12 -8 -12 -10 0 -13 6 -10 15 7 17 30 20 39 5z
m335 -370 c5 8 10 11 10 5 -1 -13 -25 -45 -35 -45 -4 0 -4 7 -1 16 5 14 4 15
-9 4 -16 -13 -20 -3 -9 24 6 15 8 15 20 -1 12 -16 15 -16 24 -3z m85 -139 c3
-5 1 -12 -5 -16 -5 -3 -10 1 -10 9 0 18 6 21 15 7z m40 -21 c-3 -5 1 -10 9
-10 13 0 14 -3 4 -19 -7 -11 -16 -17 -21 -14 -5 3 -4 9 3 13 9 5 9 9 1 14 -14
9 -14 26 0 26 5 0 7 -4 4 -10z m39 -45 c-4 -8 -11 -12 -16 -9 -6 4 -5 10 3 15
19 12 19 11 13 -6z m51 -65 c3 -5 1 -10 -4 -10 -6 0 -11 5 -11 10 0 6 2 10 4
10 3 0 8 -4 11 -10z m81 -108 c-8 -8 -31 13 -31 28 0 8 -6 14 -12 13 -7 -2
-13 5 -13 15 1 13 8 8 30 -17 16 -19 28 -37 26 -39z m139 -92 c3 -5 1 -10 -4
-10 -6 0 -11 5 -11 10 0 6 2 10 4 10 3 0 8 -4 11 -10z m90 -93 c4 5 5 2 1 -5
-7 -11 -11 -10 -25 2 -10 9 -21 13 -26 9 -4 -5 -5 -2 -1 5 7 11 11 10 25 -2
10 -9 21 -13 26 -9z m235 -337 c-39 -7 -51 -3 -32 9 8 4 25 5 40 2 26 -5 26
-6 -8 -11z m324 -345 c-4 -8 -11 -12 -16 -9 -6 4 -5 10 3 15 19 12 19 11 13
-6z"/>
<path d="M4830 3786 l0 -286 253 0 c346 0 444 16 525 85 116 100 100 321 -30
411 -82 56 -155 67 -470 72 l-278 4 0 -286z"/>
<path d="M4830 2710 l0 -300 333 0 c352 1 447 9 523 48 93 48 144 133 144 244
0 177 -99 274 -305 298 -50 5 -226 10 -392 10 l-303 0 0 -300z"/>
<path d="M306 2425 c11 -8 14 -14 6 -15 -9 0 -8 -7 4 -25 9 -14 20 -23 24 -20
5 3 13 -3 19 -12 6 -10 11 -12 11 -5 0 27 -51 91 -74 92 -6 0 -1 -7 10 -15z"/>
<path d="M605 2041 c-3 -5 -2 -12 3 -15 5 -3 9 1 9 9 0 17 -3 19 -12 6z"/>
<path d="M650 2025 c0 -9 6 -12 17 -8 12 5 14 3 8 -7 -5 -8 -4 -11 3 -6 5 3
13 0 15 -6 3 -8 6 -6 6 4 1 10 -8 22 -18 28 -26 13 -31 13 -31 -5z"/>
<path d="M1086 1517 c3 -10 9 -15 12 -12 3 3 0 11 -7 18 -10 9 -11 8 -5 -6z"/>
<path d="M1352 1214 c10 -10 20 -15 24 -12 3 4 -5 12 -18 18 -22 12 -22 12 -6
-6z"/>
<path d="M1410 1129 c0 -5 5 -7 10 -4 6 3 10 8 10 11 0 2 -4 4 -10 4 -5 0 -10
-5 -10 -11z"/>
<path d="M1476 1064 c-5 -14 -4 -15 9 -4 17 14 19 20 6 20 -5 0 -12 -7 -15
-16z"/>
<path d="M1650 865 c14 -8 32 -14 40 -14 21 0 -18 22 -45 26 -17 2 -16 0 5
-12z"/>
<path d="M1760 746 c0 -2 7 -6 15 -10 8 -3 15 -1 15 4 0 6 -7 10 -15 10 -8 0
-15 -2 -15 -4z"/>
<path d="M2000 491 c0 -6 4 -12 8 -15 5 -3 9 1 9 9 0 8 -4 15 -9 15 -4 0 -8
-4 -8 -9z"/>
<path d="M2050 446 c0 -2 7 -7 16 -10 8 -3 12 -2 9 4 -6 10 -25 14 -25 6z"/>
</g>
</svg>
